<?xml version="1.0" standalone="no"?>
<!DOCTYPE svg PUBLIC "-//W3C//DTD SVG 20010904//EN"
 "http://www.w3.org/TR/2001/REC-SVG-20010904/DTD/svg10.dtd">
<svg version="1.0" xmlns="http://www.w3.org/2000/svg"
 width="100.000000pt" height="100.000000pt" viewBox="0 0 100.000000 100.000000"
 preserveAspectRatio="xMidYMid meet">

<g transform="translate(0.000000,100.000000) scale(0.100000,-0.100000)"
fill="#000000" stroke="none">
<path d="M124 871 c3 -5 20 -11 37 -13 29 -5 30 -4 14 9 -21 14 -59 18 -51 4z"/>
<path d="M273 847 l28 -22 -88 -1 c-56 -1 -88 -5 -91 -12 -2 -7 -11 -12 -20
-13 -14 0 -13 -2 3 -9 17 -7 16 -9 -10 -10 -16 -1 -43 -2 -60 -1 -24 1 -27 0
-13 -9 11 -7 43 -7 95 -1 43 4 81 6 86 4 16 -9 5 -20 -30 -30 l-38 -11 43 5
c33 4 42 2 42 -10 0 -10 6 -13 20 -10 27 7 28 -32 1 -47 -25 -13 -44 -71 -45
-135 -1 -34 -5 -49 -13 -48 -7 2 -13 -1 -13 -7 0 -5 -6 -7 -14 -4 -9 4 -15 -5
-18 -25 -6 -39 1 -45 24 -24 12 11 18 12 18 3 0 -9 10 -10 35 -6 27 5 37 3 41
-9 5 -13 34 -22 34 -11 0 16 -14 36 -25 36 -7 0 -18 7 -25 16 -11 12 -10 18 6
33 18 18 20 18 64 -10 24 -16 41 -29 37 -29 -4 0 -1 -13 8 -30 14 -27 26 -34
78 -42 15 -3 14 -8 -12 -35 -34 -37 -49 -41 -58 -15 -4 9 -11 20 -15 23 -13 9
-59 -2 -52 -12 3 -5 0 -9 -6 -9 -6 0 -9 -8 -6 -18 4 -13 -6 -31 -35 -60 -22
-23 -37 -42 -34 -42 4 0 2 -6 -4 -14 -9 -11 -10 -20 -1 -35 13 -26 18 -26 44
-2 21 18 192 108 250 131 22 8 26 14 16 20 -10 6 -5 13 20 28 33 21 53 20 82
-5 10 -9 46 -16 100 -18 101 -4 138 -12 161 -36 19 -20 37 -25 37 -11 0 5 12
15 28 23 35 18 41 27 34 51 -4 16 -10 18 -31 13 -71 -17 -83 -17 -145 10 -35
15 -69 24 -76 20 -6 -4 -31 -1 -56 6 -40 12 -44 16 -39 38 8 32 -25 61 -84 74
-25 5 -63 13 -85 17 -34 7 -85 49 -86 73 0 16 18 6 23 -13 4 -17 13 -20 64
-20 32 1 69 7 81 14 23 12 23 14 7 30 -16 16 -19 16 -36 0 -16 -14 -24 -15
-69 -4 -27 7 -50 15 -50 19 0 4 -16 15 -36 24 -32 16 -34 19 -20 33 34 34 9
118 -48 163 -21 17 -42 31 -45 31 -3 0 7 -10 22 -23z m-44 -46 c9 -6 0 -10
-28 -13 -36 -3 -40 -2 -25 9 21 15 34 16 53 4z"/>
<path d="M809 573 c-13 -15 -12 -15 9 -4 23 12 28 21 13 21 -5 0 -15 -7 -22
-17z"/>
<path d="M862 558 c5 -15 28 -18 29 -3 0 6 -7 12 -17 13 -10 3 -15 -1 -12 -10z"/>
<path d="M809 538 c-9 -17 -3 -50 10 -60 13 -10 14 -10 4 2 -10 10 -9 16 4 25
9 7 13 17 9 23 -6 11 -24 16 -27 10z"/>
<path d="M867 503 c-12 -11 -8 -21 13 -26 20 -5 48 18 36 30 -3 3 -6 0 -6 -7
0 -11 -3 -11 -12 -2 -14 14 -22 15 -31 5z"/>
<path d="M100 450 c0 -11 4 -20 9 -20 11 0 22 26 14 34 -12 12 -23 5 -23 -14z"/>
</g>
</svg>
