<?xml version="1.0" standalone="no"?>
<!DOCTYPE svg PUBLIC "-//W3C//DTD SVG 20010904//EN"
 "http://www.w3.org/TR/2001/REC-SVG-20010904/DTD/svg10.dtd">
<svg version="1.0" xmlns="http://www.w3.org/2000/svg"
 width="600.000000pt" height="600.000000pt" viewBox="0 0 600.000000 600.000000"
 preserveAspectRatio="xMidYMid meet">

<g transform="translate(0.000000,600.000000) scale(0.100000,-0.100000)"
fill="#000000" stroke="none">
<path d="M1193 4347 c4 -10 7 -31 7 -46 l0 -27 105 -10 c58 -5 105 -8 105 -6
0 2 -6 9 -13 16 -9 10 -38 13 -96 11 -83 -3 -83 -3 -78 21 3 15 -3 30 -16 41
-20 17 -20 17 -14 0z"/>
<path d="M1258 4313 c12 -2 32 -2 45 0 12 2 2 4 -23 4 -25 0 -35 -2 -22 -4z"/>
<path d="M1335 4305 c23 -8 85 -10 85 -3 0 4 -21 8 -47 7 -27 0 -43 -2 -38 -4z"/>
<path d="M1590 4265 c0 -27 3 -45 7 -41 7 7 5 77 -2 85 -3 2 -5 -17 -5 -44z"/>
<path d="M1653 4255 c0 -27 2 -38 4 -22 2 15 2 37 0 50 -2 12 -4 0 -4 -28z"/>
<path d="M1772 4260 c0 -14 2 -19 5 -12 2 6 2 18 0 25 -3 6 -5 1 -5 -13z"/>
<path d="M1711 4231 c-1 -28 3 -41 8 -35 6 5 6 24 1 44 l-8 35 -1 -44z"/>
<path d="M1215 4230 c11 -5 45 -9 75 -9 55 -1 180 -17 211 -27 9 -2 19 -14 22
-24 5 -18 0 -20 -39 -20 -30 0 -43 -4 -41 -12 1 -10 -24 -14 -93 -16 -115 -3
-148 -22 -39 -22 108 0 149 -9 158 -34 26 -68 33 -62 -93 -69 -145 -9 -200
-27 -76 -26 244 3 269 1 293 -25 12 -13 31 -25 42 -27 15 -3 20 -12 20 -34 0
-21 -4 -29 -15 -27 -7 2 -85 6 -171 9 l-157 6 -7 34 c-4 24 -11 33 -25 33 -16
0 -20 -7 -20 -35 0 -34 -2 -35 -37 -36 -83 -3 -96 -10 -109 -63 l-13 -48 60 6
c33 4 68 10 76 13 12 5 14 3 8 -7 -6 -10 1 -12 33 -7 23 3 40 1 37 -3 -7 -11
78 22 86 33 16 23 113 -42 102 -69 -3 -8 2 -21 12 -27 9 -7 18 -29 20 -49 3
-36 23 -78 38 -78 14 0 25 44 16 66 -7 20 -5 21 39 17 49 -5 77 -29 117 -97
17 -27 17 -28 -1 -23 -11 4 -48 7 -83 8 l-64 3 -13 -42 c-14 -48 -8 -57 7 -13
l11 30 86 -5 c94 -6 97 -8 181 -109 l23 -28 -38 7 c-22 3 -93 9 -159 12 -143
7 -152 9 -135 29 22 26 4 27 -49 4 -37 -16 -57 -32 -72 -59 -35 -63 -104 -69
-166 -15 -23 19 -50 35 -61 35 -11 0 -25 7 -32 15 -18 21 -33 19 -21 -3 9 -17
1 -19 -92 -31 -56 -7 -142 -21 -192 -32 -98 -21 -289 -78 -283 -84 2 -2 46 9
98 26 171 53 510 108 510 82 0 -5 -61 -17 -136 -27 -151 -19 -331 -51 -382
-67 -32 -10 -32 -12 -17 -29 9 -10 14 -23 11 -28 -8 -13 29 -22 97 -22 32 0
74 -7 95 -16 20 -10 60 -20 87 -25 28 -4 70 -13 94 -20 37 -10 51 -9 98 5 49
16 53 19 46 39 -17 47 -9 106 18 133 24 24 29 25 65 15 84 -23 176 -6 237 45
34 28 49 29 291 2 l99 -11 53 -56 c52 -57 134 -110 177 -115 12 -1 33 -9 47
-16 14 -8 66 -16 121 -18 l95 -4 32 36 c35 40 40 56 17 56 -34 0 -115 22 -110
31 4 5 -1 6 -9 3 -8 -3 -23 -1 -32 4 -12 7 -28 5 -50 -4 -19 -8 -56 -19 -84
-25 -27 -6 -50 -13 -50 -17 0 -3 8 -15 17 -26 12 -14 8 -12 -12 5 -17 14 -53
40 -80 57 -100 62 -133 121 -140 244 -3 52 -11 79 -34 120 -17 29 -31 49 -31
44 0 -5 12 -29 26 -54 15 -25 21 -42 15 -38 -20 13 -52 87 -46 107 4 10 2 19
-4 19 -12 0 -7 37 14 112 l14 47 -77 16 c-110 24 -109 23 -116 47 -3 12 -4 23
-2 25 3 3 158 -24 189 -33 13 -4 16 -12 12 -27 -5 -19 -4 -19 9 3 9 14 15 28
16 31 0 6 -121 35 -200 47 -41 7 -46 11 -58 46 -7 21 -10 41 -8 44 6 5 217
-41 257 -56 22 -9 25 -15 21 -42 l-4 -31 62 40 c35 23 73 41 84 42 21 0 21 1
1 8 -18 8 -16 12 24 50 24 22 49 41 55 41 6 0 -6 -16 -26 -35 -21 -18 -38 -37
-38 -42 0 -4 18 10 40 32 21 21 37 42 35 46 -3 4 7 12 22 18 25 10 23 11 -20
7 -33 -2 -66 -15 -107 -40 l-59 -36 -83 34 c-46 19 -128 48 -183 66 -55 17
-120 41 -144 52 -25 12 -46 17 -48 12 -2 -6 -29 -7 -71 -3 -94 11 -242 10
-217 -1z m545 -107 c74 -24 148 -49 163 -56 29 -12 29 -12 9 -31 -20 -18 -23
-17 -84 3 -35 11 -106 30 -158 42 -90 19 -109 29 -110 56 0 6 -3 19 -6 28 -8
20 7 17 186 -42z m-205 -24 c41 -65 42 -69 4 -69 -30 0 -37 6 -66 55 l-32 55
34 0 c30 0 39 -6 60 -41z m76 -390 l20 -29 -28 0 c-15 0 -39 7 -53 15 -14 8
-33 17 -42 21 -33 12 -8 29 37 26 36 -3 49 -10 66 -33z m171 3 c4 -4 5 -17 2
-30 -5 -16 -14 -22 -33 -21 -38 1 -57 10 -82 43 l-23 29 64 -6 c35 -4 68 -11
72 -15z m-18 -78 c10 -4 16 -18 16 -41 0 -40 -13 -36 -43 16 -19 33 -11 40 27
25z m516 -374 c18 -12 2 -12 -25 0 -13 6 -15 9 -5 9 8 0 22 -4 30 -9z"/>
<path d="M1767 4190 c-3 -11 -1 -20 4 -20 5 0 9 9 9 20 0 11 -2 20 -4 20 -2 0
-6 -9 -9 -20z"/>
<path d="M2420 4157 c0 -2 23 -27 50 -57 28 -30 50 -57 50 -61 0 -4 15 -10 33
-13 17 -3 59 -20 91 -36 32 -17 60 -30 62 -30 2 0 4 14 4 30 0 63 -156 170
-247 170 -23 0 -43 -1 -43 -3z m150 -111 l25 -17 -29 7 c-29 7 -75 49 -76 68
0 6 12 -2 28 -16 15 -14 38 -33 52 -42z"/>
<path d="M1870 4143 c0 -5 18 -16 40 -25 30 -12 40 -13 40 -4 0 7 -11 18 -25
24 -30 14 -55 16 -55 5z"/>
<path d="M2137 3885 c-19 -18 -66 -157 -69 -204 -3 -33 2 -39 87 -108 50 -40
95 -73 100 -73 13 0 186 122 204 144 11 13 8 32 -17 116 -42 141 -41 140 -178
140 -86 0 -116 -3 -127 -15z m242 -9 c13 -16 44 -116 38 -122 -2 -3 -12 16
-21 40 -20 53 -36 67 -90 83 l-41 11 51 1 c33 1 56 -4 63 -13z"/>
<path d="M2805 3789 c2 -31 6 -69 10 -85 l6 -29 -18 33 c-9 17 -19 32 -22 32
-3 0 -14 -17 -23 -38 -10 -20 -31 -54 -48 -74 -29 -35 -30 -41 -33 -142 -2
-58 0 -106 5 -106 5 0 26 9 46 19 l38 19 94 -39 c52 -22 127 -53 167 -70 67
-27 103 -30 103 -7 0 7 -5 6 -13 -1 -10 -8 -26 -4 -65 17 -29 15 -52 32 -52
37 0 6 -47 33 -105 60 -75 34 -104 52 -101 62 27 70 35 126 32 213 -3 52 -9
109 -14 125 -8 25 -9 21 -7 -26z m-54 -171 c-43 -101 -47 -107 -55 -70 -6 25
-1 39 33 84 23 29 41 57 41 62 0 5 3 7 6 4 3 -3 -8 -39 -25 -80z"/>
<path d="M1138 3743 c6 -2 18 -2 25 0 6 3 1 5 -13 5 -14 0 -19 -2 -12 -5z"/>
<path d="M1114 3645 c-16 -38 -19 -115 -5 -115 10 0 26 56 22 81 -1 9 3 28 8
42 16 41 -7 34 -25 -8z"/>
<path d="M1512 3660 c0 -14 2 -19 5 -12 2 6 2 18 0 25 -3 6 -5 1 -5 -13z"/>
<path d="M1328 3645 c17 -8 32 -17 32 -20 0 -3 -9 -1 -19 5 -27 14 -76 2 -101
-26 -20 -20 -21 -27 -11 -55 23 -66 37 -79 89 -79 59 0 67 6 81 55 19 69 15
82 -32 110 -24 14 -50 25 -58 25 -8 -1 1 -7 19 -15z"/>
<path d="M5085 3491 c25 -4 -3 -7 -75 -7 -90 0 -132 -4 -196 -23 -94 -26 -328
-136 -320 -150 6 -9 -135 -97 -249 -154 -176 -87 -422 -171 -540 -183 -36 -4
-65 -10 -65 -14 0 -4 20 -13 45 -19 57 -14 80 -46 72 -102 -6 -49 -28 -75 -76
-90 -52 -16 -58 -25 -34 -51 11 -13 30 -40 42 -60 13 -21 26 -38 30 -38 5 0
27 15 51 33 24 17 62 45 84 60 23 16 76 63 119 105 42 42 77 72 77 67 0 -19
-206 -216 -267 -254 -33 -22 -78 -55 -100 -74 -54 -48 -189 -140 -253 -172
-30 -15 -70 -40 -90 -56 -60 -48 -267 -128 -293 -112 -5 3 -12 1 -16 -5 -4 -6
-40 -14 -81 -17 -41 -4 -92 -8 -113 -10 -21 -1 -41 -5 -44 -9 -11 -11 -43 -6
-43 7 0 9 -35 12 -137 13 -222 1 -272 4 -321 20 -25 9 -60 14 -78 11 -31 -5
-35 -2 -96 81 -36 48 -71 101 -80 119 -24 49 -225 277 -293 332 -10 9 -33 30
-51 46 -17 17 -48 38 -70 48 -21 10 -54 31 -74 45 -19 15 -44 32 -55 38 -11 6
-46 25 -77 42 -31 18 -61 32 -67 32 -6 0 -33 13 -61 30 -54 32 -283 107 -367
120 -28 4 -56 11 -61 14 -5 3 -43 11 -83 17 -41 6 -83 13 -94 14 -11 2 -57 4
-102 4 -46 1 -83 5 -83 9 0 5 18 17 40 27 22 10 38 20 36 22 -2 2 -38 -12 -80
-32 l-76 -36 30 -25 c16 -14 37 -38 46 -53 12 -20 29 -31 63 -39 142 -34 237
-62 246 -74 5 -7 24 -14 40 -16 17 -2 36 -10 42 -19 12 -15 13 -15 13 5 0 30
49 32 57 2 3 -11 13 -20 23 -20 10 0 25 -6 32 -14 8 -7 27 -16 43 -18 89 -17
151 -34 157 -44 5 -7 44 -33 88 -59 82 -48 110 -75 110 -107 0 -11 5 -15 14
-12 9 3 20 -3 28 -15 7 -12 20 -21 30 -21 9 0 27 -12 39 -27 12 -16 19 -20 16
-10 -10 26 7 20 42 -15 33 -34 39 -56 19 -76 -18 -18 -28 -14 -28 11 0 13 -7
32 -15 43 -12 17 -12 13 1 -30 17 -59 20 -62 37 -48 19 16 34 2 52 -48 11 -30
15 -63 11 -100 -4 -46 -4 -50 5 -25 10 30 7 104 -6 138 -5 11 -2 17 8 17 9 0
18 -12 22 -29 5 -25 45 -75 45 -57 0 4 9 2 20 -4 22 -12 26 -40 10 -71 -12
-21 -46 -26 -53 -6 -4 9 -6 9 -6 -1 -1 -19 29 -27 52 -13 16 10 21 10 28 -1 6
-9 9 -9 9 -1 0 6 5 24 11 40 8 22 12 24 19 13 14 -22 12 -60 -2 -60 -7 -1 -3
-9 9 -19 36 -30 75 -129 68 -173 -4 -20 -2 -45 4 -55 9 -16 11 -15 20 10 14
35 14 40 1 32 -11 -7 -11 23 -1 70 6 27 8 28 14 9 4 -12 5 -28 1 -37 -7 -18
24 -107 37 -107 22 0 49 -46 50 -84 1 -34 2 -37 8 -16 13 47 21 -5 22 -148 l2
-137 8 125 c5 69 7 140 4 157 l-6 33 25 -25 c14 -14 29 -25 34 -25 6 0 13 -12
16 -26 6 -21 1 -33 -20 -55 -23 -24 -25 -31 -14 -44 18 -22 32 -19 18 4 -9 15
-9 23 2 35 12 15 15 15 32 -4 10 -11 24 -20 30 -20 6 0 19 -7 29 -16 19 -17
39 -12 39 10 0 8 -9 12 -23 9 -41 -7 -71 18 -79 66 -4 24 -15 49 -24 56 -24
17 -2 29 42 21 26 -5 34 -12 34 -29 0 -12 12 -40 25 -62 30 -48 33 -39 5 15
-24 47 -25 56 -4 64 25 10 44 -13 44 -51 l0 -34 26 26 c15 15 33 24 41 21 8
-3 18 -6 22 -6 5 0 6 -10 4 -22 -2 -13 1 -43 6 -68 l10 -45 -2 55 c-1 30 2 55
6 55 11 0 17 -181 7 -214 -4 -14 -11 -35 -15 -46 -7 -18 -6 -18 14 3 21 21 23
35 26 150 4 151 2 141 19 119 10 -13 11 -26 3 -55 -7 -29 -6 -45 7 -72 l16
-35 -4 60 c-2 33 -2 54 1 47 4 -10 9 -10 23 3 17 15 20 14 46 -10 28 -26 34
-26 101 1 19 8 31 19 28 24 -8 13 29 30 67 30 22 0 37 -7 46 -20 7 -11 19 -20
27 -20 11 0 9 6 -7 22 -24 24 -98 52 -98 37 0 -5 -7 -9 -15 -9 -8 0 -24 -13
-37 -30 -14 -20 -30 -30 -47 -30 -32 0 -111 35 -111 49 0 16 61 30 158 34 76
4 96 9 107 24 12 15 16 16 24 4 5 -7 14 -10 20 -7 6 4 19 2 28 -3 16 -9 15
-10 -7 -11 -21 -1 -22 -2 -8 -10 17 -11 48 -4 48 11 0 5 36 8 80 8 60 0 91 4
123 19 23 11 62 23 86 26 50 7 71 20 71 47 0 17 5 18 43 13 23 -4 46 -10 51
-15 5 -4 23 4 40 18 l31 26 6 -64 6 -64 1 55 c2 51 5 57 50 98 26 24 61 51 77
59 17 8 54 31 83 51 44 30 55 34 62 22 6 -8 10 -10 10 -4 0 16 57 77 67 71 4
-3 19 11 33 31 14 19 38 47 54 61 49 45 79 75 137 136 31 33 70 71 88 84 17
13 31 32 31 43 0 11 27 47 60 81 101 103 120 125 120 137 0 7 11 25 25 42 14
16 25 36 25 44 0 8 10 18 23 23 32 12 128 79 143 99 10 14 14 15 30 2 10 -9
15 -10 11 -3 -23 38 74 128 213 198 47 24 102 55 123 69 28 19 51 26 85 26 27
0 54 6 61 13 11 10 14 9 18 -1 4 -10 9 -8 19 5 13 17 15 17 29 -1 9 -12 11
-22 6 -26 -6 -3 -6 -11 -2 -19 6 -9 10 -7 14 10 3 13 2 28 -4 35 -17 20 6 26
123 31 132 6 193 -2 218 -27 11 -11 21 -16 24 -12 10 16 81 12 159 -8 83 -22
107 -21 107 4 0 29 -247 115 -390 134 -84 12 -297 23 -235 13z m-145 -31
c-134 -30 -162 -32 -75 -6 44 14 98 24 120 24 31 0 20 -4 -45 -18z m308 -16
c37 -10 25 -24 -22 -24 -43 0 -63 10 -49 24 8 8 41 8 71 0z m-166 -15 c-15 -6
-30 -5 -40 1 -13 7 -8 9 23 9 35 0 37 -1 17 -10z m-84 -18 c-13 -21 -65 -33
-88 -21 -17 10 -15 11 50 29 50 13 51 13 38 -8z m-338 -47 c-52 -30 -106 -62
-120 -71 -14 -9 -10 -2 10 16 19 17 40 31 45 31 6 0 28 12 49 26 48 33 88 54
101 54 6 0 -33 -25 -85 -56z m840 36 c13 -9 13 -10 0 -10 -8 0 -22 5 -30 10
-13 9 -13 10 0 10 8 0 22 -5 30 -10z m-665 -30 c3 -5 0 -10 -8 -10 -8 0 -17
-6 -20 -14 -6 -15 -47 -29 -47 -16 0 10 49 50 61 50 4 0 11 -4 14 -10z m-299
-45 c-11 -8 -25 -15 -30 -15 -6 1 0 7 14 15 32 19 40 18 16 0z m-31 -53 c-6
-5 -59 -45 -120 -90 -74 -54 -119 -96 -138 -126 -25 -39 -117 -127 -117 -111
0 4 17 23 38 44 20 20 51 54 67 75 28 36 140 128 229 188 39 27 61 37 41 20z
m-30 -142 c3 -5 -1 -10 -9 -10 -8 0 -18 5 -21 10 -3 6 1 10 9 10 8 0 18 -4 21
-10z m-45 -54 c0 -3 -4 -8 -10 -11 -5 -3 -10 -1 -10 4 0 6 5 11 10 11 6 0 10
-2 10 -4z m-330 -159 c0 -2 -10 -12 -22 -23 l-23 -19 19 23 c18 21 26 27 26
19z m-2465 -127 c11 -17 -20 -11 -36 8 -9 9 -25 23 -35 30 -10 7 0 3 23 -8 23
-11 44 -24 48 -30z m124 -107 c2 -2 2 -6 -2 -9 -7 -7 -64 35 -71 53 -3 8 11 1
32 -14 20 -15 39 -28 41 -30z m2216 27 c-10 -11 -21 -17 -24 -14 -3 3 3 12 13
20 28 20 32 17 11 -6z m-2348 -177 c-3 -10 -5 -2 -5 17 0 19 2 27 5 18 2 -10
2 -26 0 -35z m2193 32 c0 -8 -54 -56 -75 -66 -11 -6 0 8 25 30 46 41 50 45 50
36z m-2147 -52 c-9 -23 -33 -14 -33 12 0 22 2 24 19 13 10 -6 17 -18 14 -25z
m326 -107 c29 -46 26 -57 -4 -16 -23 31 -31 50 -21 50 2 0 14 -15 25 -34z
m1661 24 c0 -5 -2 -10 -4 -10 -2 0 -12 -3 -20 -6 -12 -5 -15 -2 -10 10 7 17
34 22 34 6z m-93 -67 c-9 -9 -19 -14 -23 -11 -10 10 6 28 24 28 15 0 15 -1 -1
-17z m-1508 -56 c0 -21 -1 -21 -9 -2 -12 28 -12 37 0 30 6 -3 10 -16 9 -28z
m81 -119 c0 -17 -16 -6 -32 23 -27 46 -22 58 7 19 14 -19 25 -38 25 -42z
m1435 62 c-3 -5 -13 -10 -21 -10 -8 0 -12 5 -9 10 3 6 13 10 21 10 8 0 12 -4
9 -10z m-258 -26 c-3 -3 -12 -4 -19 -1 -8 3 -5 6 6 6 11 1 17 -2 13 -5z
m-1297 -21 c0 -5 -5 -15 -10 -23 -8 -12 -10 -11 -10 8 0 12 5 22 10 22 6 0 10
-3 10 -7z m1139 -34 c-8 -5 -21 -9 -29 -9 -12 1 -11 4 4 15 10 8 23 12 29 8 5
-3 3 -9 -4 -14z m-929 -5 c0 -2 -9 -4 -21 -4 -11 0 -18 4 -14 10 5 8 35 3 35
-6z m-206 -43 c-6 -6 -24 19 -24 34 1 6 7 1 15 -9 8 -11 12 -22 9 -25z m264
32 c-10 -2 -26 -2 -35 0 -10 3 -2 5 17 5 19 0 27 -2 18 -5z m121 -22 c-15 -5
-22 6 -14 19 6 9 10 9 16 -1 5 -8 4 -15 -2 -18z m585 10 c4 -5 -6 -12 -21 -15
-82 -16 -101 -17 -108 -6 -5 8 -10 8 -21 -1 -11 -9 -17 -9 -28 0 -10 8 -16 9
-21 1 -3 -5 -16 -10 -28 -10 -15 0 -18 3 -11 10 6 6 51 13 100 16 49 3 91 8
93 10 8 8 40 4 45 -5z m-509 -10 c11 -5 25 -4 32 1 6 5 24 5 40 1 27 -7 26 -8
-15 -13 -50 -7 -102 -2 -102 11 0 11 18 11 45 0z m-428 -23 c-3 -8 -6 -5 -6 6
-1 11 2 17 5 13 3 -3 4 -12 1 -19z m42 10 c0 -7 -7 -29 -14 -48 l-13 -35 -1
48 c-1 35 3 47 14 47 8 0 15 -6 14 -12z m1128 -14 c-3 -3 -12 -4 -19 -1 -8 3
-5 6 6 6 11 1 17 -2 13 -5z m-103 -33 c-10 -10 -21 -14 -23 -8 -4 10 17 27 33
27 5 0 1 -8 -10 -19z m-964 -7 c0 -2 -7 -4 -15 -4 -8 0 -15 4 -15 10 0 5 7 7
15 4 8 -4 15 -8 15 -10z m120 -4 c0 -5 -2 -10 -4 -10 -3 0 -8 5 -11 10 -3 6
-1 10 4 10 6 0 11 -4 11 -10z m760 -10 c0 -5 -2 -10 -4 -10 -3 0 -8 5 -11 10
-3 6 -1 10 4 10 6 0 11 -4 11 -10z m-813 -40 c0 -35 -12 -40 -20 -8 -5 17 4
35 19 38 0 0 1 -13 1 -30z m130 -6 c10 -28 -3 -24 -26 7 -23 30 -23 31 -1 19
11 -6 24 -18 27 -26z m485 13 c-6 -7 -9 -24 -6 -38 5 -22 4 -22 -14 6 -22 34
-20 45 10 45 16 0 18 -3 10 -13z m-154 -7 c7 0 12 -12 12 -27 -1 -26 -1 -27
-12 -8 -16 29 -30 36 -58 30 -19 -4 -22 -3 -10 5 8 6 24 8 35 5 11 -2 26 -5
33 -5z m-227 -33 c-6 -8 -7 -18 -3 -22 4 -5 1 -5 -5 -1 -19 10 -16 36 3 36 13
0 14 -3 5 -13z m209 -12 c0 -15 -46 -32 -58 -21 -3 4 4 9 16 13 12 3 22 12 22
20 0 8 5 11 10 8 6 -3 10 -13 10 -20z m-106 0 c-4 -8 -13 -15 -22 -15 -13 0
-12 3 4 15 24 18 25 18 18 0z"/>
<path d="M5140 3370 c0 -5 5 -10 11 -10 5 0 7 5 4 10 -3 6 -8 10 -11 10 -2 0
-4 -4 -4 -10z"/>
<path d="M3312 3354 c-12 -8 -22 -19 -22 -25 0 -11 55 15 65 31 10 15 -18 12
-43 -6z"/>
<path d="M3430 3365 c0 -3 15 -19 32 -36 21 -20 34 -26 37 -18 2 7 -8 23 -23
36 -25 21 -46 30 -46 18z"/>
<path d="M2679 3324 c-44 -47 -139 -104 -173 -104 -22 0 -40 -8 -55 -24 l-23
-25 48 16 c87 27 95 28 101 4 3 -11 9 -21 14 -21 14 0 11 38 -3 43 -17 7 73
88 90 82 7 -3 10 0 7 6 -4 6 1 19 11 30 26 29 11 23 -17 -7z"/>
<path d="M2280 3310 c0 -5 9 -14 20 -20 11 -6 20 -9 20 -8 0 2 -9 11 -20 21
-11 9 -20 13 -20 7z"/>
<path d="M4880 3289 c0 -5 5 -7 10 -4 6 3 10 8 10 11 0 2 -4 4 -10 4 -5 0 -10
-5 -10 -11z"/>
<path d="M3348 3268 c-38 -48 -4 -91 53 -67 27 11 29 15 23 43 -8 38 -4 33
-34 40 -19 5 -30 1 -42 -16z"/>
<path d="M3261 3235 c0 -16 3 -37 9 -45 15 -24 17 -7 4 35 -12 38 -12 38 -13
10z"/>
<path d="M4364 3244 c-18 -14 -18 -15 4 -4 12 6 22 13 22 15 0 8 -5 6 -26 -11z"/>
<path d="M575 3226 l-50 -24 61 -1 c48 -1 63 3 68 15 7 19 0 34 -17 34 -7 0
-34 -11 -62 -24z"/>
<path d="M3497 3216 c-10 -14 -17 -34 -17 -44 0 -10 -6 -24 -12 -32 -7 -8 1
-2 19 14 33 30 45 56 33 75 -5 8 -12 4 -23 -13z"/>
<path d="M4260 3190 c-41 -21 -72 -39 -67 -40 10 0 147 69 147 75 0 7 3 8 -80
-35z"/>
<path d="M3355 3130 c-17 -6 -17 -7 -1 -13 25 -10 66 -9 66 2 0 12 -42 19 -65
11z"/>
<path d="M1172 3107 c-22 -12 -20 -14 30 -30 28 -9 53 -15 55 -13 6 6 -39 56
-50 56 -7 -1 -22 -6 -35 -13z"/>
<path d="M2925 3060 c11 -5 27 -9 35 -9 9 0 8 4 -5 9 -11 5 -27 9 -35 9 -9 0
-8 -4 5 -9z"/>
<path d="M3000 3040 c14 -4 34 -8 45 -8 16 0 15 2 -5 8 -14 4 -34 8 -45 8 -16
0 -15 -2 5 -8z"/>
<path d="M3845 3028 c-38 -10 -115 -25 -170 -32 -72 -10 -87 -14 -54 -15 61
-1 200 23 269 48 69 24 47 24 -45 -1z"/>
<path d="M3078 3023 c6 -2 18 -2 25 0 6 3 1 5 -13 5 -14 0 -19 -2 -12 -5z"/>
<path d="M3133 3013 c9 -2 23 -2 30 0 6 3 -1 5 -18 5 -16 0 -22 -2 -12 -5z"/>
<path d="M3193 3003 c9 -2 23 -2 30 0 6 3 -1 5 -18 5 -16 0 -22 -2 -12 -5z"/>
<path d="M3220 2961 c63 -22 127 -41 143 -41 15 0 27 -5 27 -10 0 -6 26 -27
58 -47 31 -20 80 -53 107 -74 46 -35 54 -37 88 -29 79 17 115 67 86 119 -25
44 -71 62 -181 72 -139 13 -374 39 -412 45 -17 3 21 -13 84 -35z"/>
<path d="M3278 2993 c6 -2 18 -2 25 0 6 3 1 5 -13 5 -14 0 -19 -2 -12 -5z"/>
<path d="M3547 2759 c7 -7 15 -10 18 -7 3 3 -2 9 -12 12 -14 6 -15 5 -6 -5z"/>
<path d="M3578 2681 c7 -75 -5 -115 -54 -187 l-45 -65 106 72 c58 40 108 75
110 78 5 10 -98 151 -111 151 -7 0 -9 -17 -6 -49z"/>
<path d="M1832 2190 c0 -14 2 -19 5 -12 2 6 2 18 0 25 -3 6 -5 1 -5 -13z"/>
<path d="M1915 1990 c-7 -12 12 -40 27 -40 13 0 6 43 -9 47 -6 2 -14 -1 -18
-7z"/>
<path d="M3310 1973 c0 -6 8 -17 18 -24 16 -13 16 -13 2 6 -8 11 -16 22 -17
24 -2 2 -3 0 -3 -6z"/>
<path d="M3076 1921 c-3 -4 3 -16 13 -25 21 -19 37 -7 27 19 -6 16 -32 20 -40
6z"/>
<path d="M2905 1881 c-47 -31 -81 -61 -69 -61 13 0 89 53 99 69 9 15 5 14 -30
-8z"/>
<path d="M2325 1860 c-3 -5 1 -10 9 -10 9 0 16 5 16 10 0 6 -4 10 -9 10 -6 0
-13 -4 -16 -10z"/>
<path d="M2273 1775 c0 -33 2 -45 4 -27 2 18 2 45 0 60 -2 15 -4 0 -4 -33z"/>
<path d="M2677 1809 c9 -9 9 -16 2 -25 -5 -7 -6 -15 -1 -17 4 -3 13 3 20 13
10 17 8 21 -11 31 -18 9 -20 9 -10 -2z"/>
<path d="M2312 1780 c0 -14 2 -19 5 -12 2 6 2 18 0 25 -3 6 -5 1 -5 -13z"/>
<path d="M2600 1754 c0 -8 5 -12 10 -9 6 4 8 11 5 16 -9 14 -15 11 -15 -7z"/>
<path d="M2555 1700 c-3 -5 1 -20 9 -32 9 -12 16 -17 16 -11 0 7 -5 15 -11 18
-6 4 -8 13 -5 21 6 16 0 19 -9 4z"/>
<path d="M2448 1669 c0 -13 -1 -32 0 -41 1 -12 -3 -15 -15 -11 -13 5 -15 3 -9
-13 5 -10 11 -41 15 -69 7 -47 7 -44 15 48 4 55 5 102 2 105 -3 3 -7 -6 -8
-19z"/>
<path d="M2404 1557 c3 -10 6 -35 6 -55 0 -28 3 -33 10 -22 14 22 12 52 -7 75
-14 18 -15 18 -9 2z"/>
<path d="M2371 1504 c0 -11 3 -14 6 -6 3 7 2 16 -1 19 -3 4 -6 -2 -5 -13z"/>
<path d="M2407 1436 c-4 -10 -7 -30 -6 -44 1 -25 1 -25 10 6 11 37 7 67 -4 38z"/>
</g>
</svg>
