<?xml version="1.0" standalone="no"?>
<!DOCTYPE svg PUBLIC "-//W3C//DTD SVG 20010904//EN"
 "http://www.w3.org/TR/2001/REC-SVG-20010904/DTD/svg10.dtd">
<svg version="1.0" xmlns="http://www.w3.org/2000/svg"
 width="500.000000pt" height="500.000000pt" viewBox="0 0 500.000000 500.000000"
 preserveAspectRatio="xMidYMid meet">

<g transform="translate(0.000000,500.000000) scale(0.100000,-0.100000)"
fill="#000000" stroke="none">
<path d="M590 4378 c0 -36 13 -42 120 -61 52 -9 123 -26 157 -37 55 -18 66
-19 95 -7 l33 14 -68 31 c-107 50 -186 74 -264 79 -73 6 -73 6 -73 -19z"/>
<path d="M1215 4331 c-9 -16 -12 -14 77 -54 74 -34 134 -71 187 -117 21 -18
22 -23 10 -31 -8 -5 -9 -9 -3 -9 7 0 20 -12 29 -26 17 -26 17 -27 -4 -21 -31
8 -25 -1 12 -17 17 -8 41 -21 52 -30 11 -9 -11 -1 -50 19 -38 19 -78 35 -88
35 -10 0 -72 27 -139 60 -66 33 -122 60 -124 60 -2 0 -4 -8 -4 -17 0 -12 16
-24 42 -35 50 -22 47 -30 -7 -18 -67 14 -225 23 -225 12 0 -5 -24 -12 -52 -15
-29 -4 -82 -11 -118 -17 -36 -5 -99 -10 -140 -11 -41 0 -95 -4 -120 -8 l-45
-7 69 -8 c114 -13 119 -19 40 -48 -98 -36 -216 -68 -309 -84 l-80 -13 120 5
c118 4 157 10 344 53 51 12 95 20 98 18 4 -5 -122 -58 -204 -86 -34 -12 -82
-21 -106 -21 -25 0 -60 -3 -78 -7 l-34 -7 30 -7 c64 -14 -143 -8 -229 7 -101
17 -122 14 -106 -15 16 -30 110 -61 188 -61 67 0 197 21 261 41 21 7 70 9 139
4 94 -6 104 -9 87 -21 -23 -17 -22 -17 39 1 98 30 258 11 346 -40 l25 -14 -38
-1 c-63 0 -184 -29 -320 -75 -114 -39 -204 -81 -195 -91 2 -2 33 7 68 20 36
13 106 29 156 36 88 12 306 11 319 -1 3 -4 -8 -21 -25 -38 -54 -53 -23 -87 56
-61 31 10 33 14 22 28 -12 15 -11 16 4 3 14 -10 25 -11 48 -3 28 10 33 8 73
-31 24 -23 33 -34 21 -24 -22 19 -22 19 -29 -25 -4 -24 -11 -51 -17 -60 -5
-10 -5 -18 -1 -19 45 -5 80 -17 160 -57 51 -25 91 -48 89 -49 -2 -2 -32 10
-66 26 -35 17 -67 28 -73 24 -5 -3 -7 -1 -3 5 7 11 -35 27 -99 36 -28 4 -34 3
-20 -4 11 -5 31 -9 45 -9 14 -1 32 -6 40 -11 11 -8 6 -9 -18 -5 -69 11 -116
-12 -199 -97 -73 -74 -79 -83 -87 -136 -5 -31 -9 -67 -10 -79 0 -13 -3 -23 -6
-23 -9 0 -33 -71 -26 -77 2 -3 18 4 34 16 16 11 42 26 58 32 29 11 142 18 147
9 1 -3 27 -17 57 -33 104 -52 181 -150 179 -226 l-1 -36 -13 47 c-7 26 -22 62
-33 80 -29 46 -88 102 -100 94 -6 -3 -13 -2 -17 4 -3 6 -24 19 -45 30 -55 28
-126 26 -203 -6 -34 -15 -73 -26 -87 -26 -16 0 -19 -2 -7 -5 9 -2 17 -10 17
-16 0 -7 3 -22 6 -34 5 -18 2 -23 -12 -23 -18 -1 -64 -32 -64 -44 0 -3 10 -6
23 -6 20 -1 19 -2 -8 -15 l-30 -15 32 3 c29 3 32 1 42 -37 5 -22 8 -45 5 -50
-3 -6 5 2 18 18 49 63 68 78 34 28 -36 -52 -44 -80 -27 -98 12 -13 -20 -190
-46 -246 -18 -40 -20 -56 -13 -110 4 -35 7 -72 7 -83 0 -11 0 -44 1 -72 l2
-53 41 0 c23 0 73 9 111 21 38 11 81 19 96 17 26 -3 27 -2 27 51 -1 46 -5 56
-27 72 -66 48 -71 54 -63 80 4 13 43 59 86 101 l79 77 1 58 c1 51 2 54 9 23 5
-25 8 -9 9 60 1 52 6 102 11 110 8 11 9 -3 6 -45 -3 -33 -8 -96 -11 -141 l-6
-81 53 -36 c29 -21 57 -37 61 -37 4 0 31 -17 60 -39 29 -21 73 -51 100 -66 45
-26 47 -26 47 -7 0 12 5 24 11 28 8 4 9 -3 4 -24 -5 -24 -3 -31 12 -34 13 -3
22 5 30 27 l11 30 1 -29 c1 -16 9 -35 19 -42 16 -12 16 -13 0 -14 -26 0 -36
-66 -15 -99 9 -14 34 -60 57 -102 46 -87 68 -102 230 -164 l93 -36 23 22 c21
20 26 21 94 8 l71 -12 -47 -23 c-64 -31 -97 -66 -154 -160 -44 -72 -58 -86
-122 -125 -109 -67 -104 -67 -138 1 -16 32 -33 77 -36 100 -4 26 -10 37 -15
29 -5 -9 -10 -5 -14 14 -15 56 -70 70 -156 40 -47 -17 -50 -17 -84 1 -29 16
-40 17 -60 8 -29 -13 -31 -21 -10 -48 8 -10 15 -34 15 -51 0 -31 -1 -32 -32
-26 -23 5 -34 2 -45 -12 -22 -31 -16 -64 12 -71 32 -8 32 -33 3 -111 -29 -79
-140 -197 -176 -188 -15 4 -34 -1 -49 -10 -20 -13 -23 -22 -18 -45 10 -45 -34
-98 -75 -92 -35 5 -50 -19 -32 -49 13 -20 15 -52 6 -85 -4 -16 -16 -23 -45
-28 -45 -7 -52 -31 -19 -61 13 -12 20 -33 22 -69 3 -49 5 -52 52 -83 78 -53
94 -48 196 59 92 98 103 105 304 198 60 27 137 68 171 89 53 34 72 40 124 42
33 1 61 6 61 10 0 15 194 161 253 190 32 17 100 39 150 50 174 37 283 84 294
126 7 31 -10 51 -31 34 -11 -9 -22 -9 -51 4 -47 19 -40 30 57 86 37 22 68 46
68 53 0 26 -59 93 -110 126 -29 19 -87 44 -129 57 -68 21 -71 23 -27 17 54 -6
143 -42 183 -74 14 -11 30 -17 36 -13 5 3 7 1 4 -4 -4 -6 2 -18 12 -27 11 -10
25 -31 31 -47 7 -16 16 -29 20 -29 4 0 33 17 66 38 32 21 66 41 74 44 28 11
181 149 206 186 58 87 121 167 131 167 6 0 15 4 20 9 5 5 3 6 -4 2 -15 -8 -18
10 -3 19 24 15 2 149 -28 172 -9 7 -32 13 -51 13 -52 0 -60 9 -63 75 -3 57 -4
60 -30 63 -17 2 -28 -1 -28 -9 0 -6 -7 -17 -15 -23 -9 -6 -22 -39 -30 -74 -16
-69 -45 -131 -69 -151 -20 -17 -21 -3 -1 19 21 23 56 126 60 173 1 20 8 43 14
51 9 11 -3 14 -66 20 -42 3 -93 6 -115 6 -21 0 -65 11 -98 24 l-59 24 -4 -26
-4 -27 -2 27 c0 16 -9 32 -21 38 -39 21 -255 77 -270 70 -28 -13 -70 -20 -70
-11 0 4 15 12 33 16 17 4 26 9 19 12 -17 7 -69 -14 -109 -44 -18 -13 -33 -20
-33 -16 1 4 17 20 37 36 l36 27 -39 0 c-36 0 -42 -4 -79 -58 l-40 -57 -5 40
c-6 42 0 99 8 77 3 -10 10 -9 30 4 27 17 27 17 9 -3 -9 -11 -14 -23 -10 -27 4
-4 1 -4 -8 -1 -11 4 -15 -2 -17 -25 -1 -16 -1 -30 1 -30 2 0 18 20 35 44 l31
43 -20 19 c-11 10 -37 41 -57 69 -74 104 -117 161 -141 189 -19 21 -21 27 -9
23 12 -4 15 -2 11 9 -3 7 -9 14 -13 14 -4 0 -17 19 -29 43 -11 23 -34 66 -51
96 -17 29 -29 56 -26 58 2 3 10 -6 17 -19 6 -12 33 -55 59 -93 26 -39 49 -77
52 -85 4 -12 7 -10 13 5 4 11 19 44 35 74 l27 53 -36 33 c-20 17 -59 39 -87
48 -88 28 -137 54 -201 108 -43 34 -63 46 -63 35 0 -9 -4 -16 -9 -16 -5 0 -3
17 4 38 19 57 26 70 19 38 -6 -33 7 -46 49 -46 20 0 30 7 37 24 5 13 19 31 31
39 14 11 20 22 16 36 -3 12 1 22 10 25 11 4 13 14 8 36 -5 24 -3 30 10 30 22
0 29 24 13 52 -7 13 -13 52 -13 88 0 53 -6 74 -28 112 -15 26 -27 58 -27 72 0
13 -5 37 -12 53 -6 15 -10 31 -10 36 1 4 -9 29 -23 56 -23 46 -97 121 -118
121 -6 0 -43 35 -82 78 -40 43 -95 90 -123 105 -58 31 -145 47 -157 28z m0
-161 c13 -6 15 -9 5 -9 -8 0 -22 4 -30 9 -18 12 -2 12 25 0z m-78 -162 c125
-41 127 -42 98 -54 -41 -18 -104 -17 -155 1 -62 22 -71 18 -25 -10 49 -30 33
-31 -70 -5 -43 11 -106 20 -139 21 l-61 1 43 19 c23 11 75 28 115 38 46 12 64
20 52 24 -16 4 -17 5 -3 6 10 0 75 -18 145 -41z m518 -33 l20 -16 -20 10 c-11
5 -29 17 -40 26 l-20 16 20 -10 c11 -5 29 -17 40 -26z m-684 -76 c148 -43 156
-49 64 -42 -109 8 -354 49 -335 57 8 3 42 7 75 9 33 2 67 4 76 5 9 1 63 -12
120 -29z m484 11 c33 -11 44 -17 25 -13 -47 8 -119 31 -100 32 8 0 42 -8 75
-19z m-278 -266 c-3 -3 -12 -4 -19 -1 -8 3 -5 6 6 6 11 1 17 -2 13 -5z m425
-422 c-10 -41 -9 -41 22 -50 40 -12 77 -11 73 3 -2 5 -17 10 -34 11 -33 1 -53
10 -53 24 0 5 13 5 29 -1 15 -5 32 -9 37 -8 5 1 20 1 34 0 18 -1 21 -4 13 -12
-6 -6 -9 -18 -6 -26 3 -8 8 -10 12 -5 3 6 12 3 20 -6 13 -13 8 -14 -49 -8 -35
4 -76 14 -90 21 -26 13 -26 14 -16 77 6 35 12 54 14 42 2 -11 -1 -39 -6 -62z
m66 22 c-4 -3 -12 5 -18 18 -12 22 -12 22 6 6 10 -10 15 -20 12 -24z m-161
-116 c-3 -8 -6 -5 -6 6 -1 11 2 17 5 13 3 -3 4 -12 1 -19z m-90 -20 c-3 -8 -6
-5 -6 6 -1 11 2 17 5 13 3 -3 4 -12 1 -19z m507 0 c8 -32 7 -38 -5 -38 -6 0
-9 6 -6 13 2 6 0 20 -5 30 -5 10 -5 17 0 17 6 0 12 -10 16 -22z m33 -10 c-3
-8 -6 -5 -6 6 -1 11 2 17 5 13 3 -3 4 -12 1 -19z m-200 -60 c-3 -8 -6 -5 -6 6
-1 11 2 17 5 13 3 -3 4 -12 1 -19z m-320 -90 c-3 -8 -6 -5 -6 6 -1 11 2 17 5
13 3 -3 4 -12 1 -19z m320 -50 c-3 -8 -6 -5 -6 6 -1 11 2 17 5 13 3 -3 4 -12
1 -19z m-626 -83 c-23 -25 -55 -66 -71 -92 -17 -26 -30 -40 -30 -32 0 23 74
133 101 153 42 29 42 17 0 -29z m306 -67 c-3 -7 -5 -2 -5 12 0 14 2 19 5 13 2
-7 2 -19 0 -25z m490 10 c-3 -8 -6 -5 -6 6 -1 11 2 17 5 13 3 -3 4 -12 1 -19z
m-10 -40 c-3 -8 -6 -5 -6 6 -1 11 2 17 5 13 3 -3 4 -12 1 -19z m-194 -13 c-3
-9 -8 -14 -10 -11 -3 3 -2 9 2 15 9 16 15 13 8 -4z m180 -60 c-3 -9 -8 -14
-10 -11 -3 3 -2 9 2 15 9 16 15 13 8 -4z m132 -65 c-10 -11 -23 -20 -28 -20
-6 0 -2 9 8 20 10 11 23 20 28 20 6 0 2 -9 -8 -20z m562 -152 c-3 -8 -6 -5 -6
6 -1 11 2 17 5 13 3 -3 4 -12 1 -19z m-1600 -120 c-2 -18 -4 -4 -4 32 0 36 2
50 4 33 2 -18 2 -48 0 -65z m2020 50 c-3 -8 -6 -5 -6 6 -1 11 2 17 5 13 3 -3
4 -12 1 -19z m-530 -444 c-3 -3 -12 -4 -19 -1 -8 3 -5 6 6 6 11 1 17 -2 13 -5z
m-814 -181 c-7 -2 -19 -2 -25 0 -7 3 -2 5 12 5 14 0 19 -2 13 -5z m94 -75 c-3
-8 -6 -5 -6 6 -1 11 2 17 5 13 3 -3 4 -12 1 -19z m714 -116 c-35 -25 -148 -84
-211 -111 -59 -26 -200 -64 -208 -57 -2 3 16 9 39 15 93 23 148 45 264 106
118 62 163 80 116 47z m74 -22 c13 -6 15 -9 5 -9 -8 0 -22 4 -30 9 -18 12 -2
12 25 0z m-901 -52 c-9 -18 -65 -82 -124 -143 -134 -137 -146 -155 -181 -268
-30 -94 -79 -191 -86 -170 -3 7 7 31 21 55 14 24 36 80 51 125 32 103 81 176
191 283 48 47 98 102 111 123 29 46 42 43 17 -5z"/>
<path d="M1003 4268 c-18 -5 -33 -11 -33 -14 0 -4 12 -3 28 1 15 4 35 7 45 7
20 -1 22 4 5 10 -7 3 -28 1 -45 -4z"/>
<path d="M1035 4240 c-25 -6 -21 -8 25 -9 39 0 51 2 40 9 -17 11 -22 11 -65 0z"/>
<path d="M1076 4210 c6 -6 21 -12 33 -13 11 -1 21 -5 21 -9 0 -4 7 -8 16 -8 9
0 14 7 12 18 -2 12 -15 18 -48 20 -33 2 -42 0 -34 -8z"/>
<path d="M1384 4139 c-8 -14 1 -21 54 -44 55 -24 66 -11 22 26 -37 30 -64 37
-76 18z"/>
<path d="M1188 3433 c7 -3 16 -2 19 1 4 3 -2 6 -13 5 -11 0 -14 -3 -6 -6z"/>
<path d="M786 3373 c-11 -11 -6 -23 9 -23 8 0 15 4 15 9 0 13 -16 22 -24 14z"/>
<path d="M903 3345 c-8 -23 0 -26 36 -14 24 9 29 14 19 20 -21 14 -48 10 -55
-6z"/>
<path d="M1060 3320 c-14 -11 -33 -20 -42 -20 -10 0 -18 -7 -18 -15 0 -25 28
-17 68 20 39 37 34 48 -8 15z"/>
<path d="M2644 3076 c-33 -24 -74 -60 -93 -80 -60 -63 -78 -64 -248 -10 -81
26 -170 49 -197 52 -45 4 -48 2 -41 -14 14 -36 18 -151 5 -188 -6 -21 -10 -40
-7 -42 3 -3 46 -8 95 -11 77 -5 97 -3 129 13 30 15 60 19 141 19 62 0 102 4
102 10 0 5 5 2 11 -7 5 -10 21 -18 34 -18 13 0 36 -5 51 -10 19 -8 30 -8 38 0
11 11 5 18 -41 46 -14 9 -2 10 53 6 77 -5 101 7 62 31 -13 8 -40 18 -61 21
-30 6 -37 11 -32 24 3 9 13 39 21 66 8 28 24 68 34 88 34 63 24 64 -56 4z"/>
<path d="M1976 2999 c-22 -74 -21 -79 28 -137 l44 -52 11 32 c21 60 4 198 -24
198 -8 0 -20 3 -29 6 -11 4 -19 -7 -30 -47z m24 -38 c-7 -28 -16 -51 -22 -51
-5 0 -7 6 -4 13 2 6 10 31 17 55 16 59 24 45 9 -17z m8 -86 c-3 -3 -9 2 -12
12 -6 14 -5 15 5 6 7 -7 10 -15 7 -18z"/>
<path d="M2686 3003 c-8 -27 -18 -57 -22 -67 -6 -16 -4 -18 16 -13 13 3 45 1
72 -4 59 -13 100 -6 91 16 -7 21 -67 45 -110 45 -22 0 -32 4 -28 11 4 6 26 10
49 8 62 -3 76 0 76 14 0 19 -44 37 -90 37 -38 0 -40 -1 -54 -47z"/>
<path d="M4178 2955 c-141 -53 -224 -180 -216 -328 17 -339 476 -430 635 -125
24 46 27 64 27 143 0 79 -3 97 -27 143 -34 65 -93 123 -155 154 -58 29 -205
36 -264 13z m240 -32 c15 -11 37 -23 49 -27 29 -9 91 -79 114 -130 29 -65 26
-187 -7 -253 -28 -58 -82 -111 -146 -145 -63 -33 -203 -33 -268 1 -62 32 -117
87 -147 146 -38 73 -38 178 -1 258 16 34 32 56 38 52 6 -4 29 9 50 29 22 20
47 36 55 36 8 0 15 8 15 19 0 27 52 41 143 37 59 -2 84 -8 105 -23z"/>
<path d="M4269 2878 c21 -11 23 -17 19 -68 l-4 -57 65 -37 65 -37 39 40 40 39
-30 54 -30 53 -74 6 c-41 3 -83 8 -94 12 -12 5 -10 2 4 -5z"/>
<path d="M4550 2736 c0 -2 8 -10 18 -17 15 -13 16 -12 3 4 -13 16 -21 21 -21
13z"/>
<path d="M4219 2703 c-13 -16 -12 -17 4 -4 16 13 21 21 13 21 -2 0 -10 -8 -17
-17z"/>
<path d="M4037 2675 c-9 -20 -17 -42 -17 -50 0 -8 -4 -15 -10 -15 -13 0 29
-69 51 -83 11 -7 19 -23 20 -37 l1 -25 7 24 c5 17 19 29 49 39 l43 14 -3 65
-3 65 -50 19 c-66 25 -69 25 -88 -16z"/>
<path d="M4412 2615 c0 -16 2 -22 5 -12 2 9 2 23 0 30 -3 6 -5 -1 -5 -18z"/>
<path d="M4395 2540 c-9 -10 -37 -27 -62 -37 -44 -18 -44 -18 -38 -57 8 -53
11 -56 51 -56 47 0 96 22 122 55 33 41 28 66 -17 92 -38 22 -39 22 -56 3z"/>
<path d="M4550 2529 c-22 -18 -22 -19 -3 -10 12 6 25 16 28 21 9 15 3 12 -25
-11z"/>
<path d="M900 2890 c0 -5 7 -10 15 -10 8 0 15 5 15 10 0 6 -7 10 -15 10 -8 0
-15 -4 -15 -10z"/>
<path d="M992 2660 c0 -19 2 -27 5 -17 2 9 2 25 0 35 -3 9 -5 1 -5 -18z"/>
<path d="M992 2580 c0 -19 2 -27 5 -17 2 9 2 25 0 35 -3 9 -5 1 -5 -18z"/>
<path d="M834 2415 c-16 -39 -18 -57 -4 -35 8 12 10 10 9 -10 -1 -58 24 -171
40 -180 20 -10 35 -2 44 23 4 11 12 15 18 11 9 -5 11 17 7 85 -5 78 -9 96 -29
117 -34 36 -67 32 -85 -11z"/>
<path d="M687 2285 c5 -102 3 -135 -6 -135 -8 0 -11 -13 -9 -37 3 -32 7 -39
35 -47 40 -11 63 5 63 44 0 27 2 27 43 23 41 -5 43 -4 42 20 0 14 -4 29 -8 33
-4 5 -5 0 -2 -11 7 -20 6 -20 -9 -1 -19 24 -21 40 -3 30 7 -5 6 0 -3 11 -11
14 -12 19 -2 22 15 6 16 40 1 79 -14 37 -93 104 -124 104 l-23 0 5 -135z"/>
<path d="M506 2332 c-3 -5 -8 -38 -11 -73 -9 -83 4 -119 43 -119 38 0 52 17
52 61 0 21 5 41 10 44 6 3 10 1 10 -4 0 -6 7 -11 15 -11 12 0 12 5 -1 43 -8
23 -22 48 -31 55 -19 14 -79 16 -87 4z"/>
<path d="M1617 2309 c7 -7 15 -10 18 -7 3 3 -2 9 -12 12 -14 6 -15 5 -6 -5z"/>
<path d="M630 2290 c0 -11 4 -20 9 -20 6 0 12 -12 14 -27 4 -25 0 21 -5 55 -2
20 -18 14 -18 -8z"/>
<path d="M672 2280 c0 -19 2 -27 5 -17 2 9 2 25 0 35 -3 9 -5 1 -5 -18z"/>
<path d="M1670 2261 c0 -11 5 -23 10 -26 6 -3 10 1 10 9 0 9 0 19 1 23 0 4 -4
9 -10 11 -6 2 -11 -5 -11 -17z"/>
<path d="M1263 2178 c7 -80 24 -159 37 -172 6 -6 33 -10 62 -11 46 0 54 3 67
27 14 25 14 30 -2 57 -9 16 -16 37 -15 48 3 44 -3 54 -48 73 -25 11 -48 20
-50 20 -2 0 -4 -26 -5 -57 -1 -32 -5 -69 -9 -83 -4 -14 -5 12 -2 58 4 66 2 86
-9 93 -27 17 -31 8 -26 -53z"/>
<path d="M937 2194 c2 -7 -11 -23 -31 -36 -37 -24 -46 -38 -22 -38 7 0 28 -3
45 -6 l31 -6 0 49 c0 36 -4 50 -14 50 -8 0 -12 -6 -9 -13z"/>
<path d="M3141 2059 c-1 -9 -13 -28 -27 -43 -30 -30 -26 -33 16 -11 32 17 33
19 20 50 -7 15 -9 16 -9 4z"/>
<path d="M3180 2015 c-7 -8 -33 -24 -59 -36 -25 -11 -77 -50 -116 -88 -38 -37
-85 -80 -103 -94 l-34 -27 42 0 c49 0 108 -28 163 -79 55 -51 97 -71 187 -92
l75 -18 35 26 35 26 -23 -25 -23 -26 26 -6 c15 -4 118 -4 228 0 133 4 226 3
272 -4 39 -7 142 -23 230 -37 245 -39 236 -35 279 -114 41 -74 78 -104 150
-122 44 -11 50 -10 62 6 12 16 12 21 0 34 -12 14 -12 19 -1 35 12 16 17 17 30
6 14 -11 19 -10 38 8 17 17 19 24 9 34 -7 7 -12 15 -12 19 0 9 48 27 95 35 22
3 50 12 62 20 12 8 34 14 48 14 20 0 25 5 25 24 0 13 -5 26 -12 28 -18 6 -1
38 21 38 17 0 31 18 31 40 0 4 -9 10 -20 13 -27 7 -28 62 -1 77 29 15 16 50
-18 50 -15 0 -31 8 -39 20 -10 17 -23 20 -77 20 l-64 0 -29 -43 c-29 -41 -34
-44 -123 -65 -155 -37 -189 -38 -250 -9 -101 47 -218 98 -271 116 -29 10 -99
39 -155 65 -56 26 -135 54 -174 62 -40 8 -76 17 -81 20 -4 3 -8 -1 -8 -9 0 -8
7 -17 15 -21 8 -3 15 -15 15 -27 0 -18 -4 -20 -22 -14 -13 4 -49 9 -80 12
l-56 5 -8 -48 c-8 -59 -43 -178 -50 -171 -3 3 0 25 7 48 19 71 36 169 30 173
-10 6 -279 116 -284 116 -3 0 -10 -7 -17 -15z m87 -292 c-3 -10 -5 -2 -5 17 0
19 2 27 5 18 2 -10 2 -26 0 -35z m-10 -105 c-3 -8 -6 -5 -6 6 -1 11 2 17 5 13
3 -3 4 -12 1 -19z"/>
<path d="M1862 1600 c0 -14 2 -19 5 -12 2 6 2 18 0 25 -3 6 -5 1 -5 -13z"/>
<path d="M2568 1553 c6 -2 18 -2 25 0 6 3 1 5 -13 5 -14 0 -19 -2 -12 -5z"/>
</g>
</svg>
